ply
format ascii 1.0
element vertex 887
property double x
property double y
property double z
end_header
0.959845489266171 0.183554581607213 -0.683097636840359
0.932593309067022 0.310880017018071 -0.743240385947358
0.792082576217333 0.156924880308107 -0.687038229963718
1.113564315981147 0.123618840880250 -0.729404481345170
0.926849825275632 -0.062310357890854 -0.685055571217434
0.768213828190225 0.339380626781539 -0.721445634628295
1.124479280598897 0.345692105205379 -0.727111841364224
0.764984314547509 -0.009776100440895 -0.682998676119854
1.147467851358257 -0.050061713821149 -0.663964620456376
0.942300292935081 0.523838687098049 -0.778053975974144
0.603116300759280 0.186858993771929 -0.687620059181590
1.336600002442404 0.164658502754588 -0.730814021556970
0.748578708226331 0.506271112297882 -0.779514662641270
1.139871538617840 0.477025565155128 -0.781698832731581
0.923581307476555 -0.261931088278795 -0.636661172366912
0.587507307270371 0.345335106565509 -0.762199800806225
1.313723348574527 0.289441315937967 -0.702219785536984
0.546534082268348 -0.051535650893529 -0.666740533772467
1.323202345009670 -0.019171488347512 -0.678647412026198
0.782508476424585 -0.261421740684982 -0.619368118811193
1.120359823951414 -0.237300586880067 -0.627223534085744
0.613760070025078 0.505316353957947 -0.788138054782893
1.330897262943338 0.486863600443067 -0.750056029671475
0.972018653687846 0.678911227633735 -0.808397940345994
0.575058411799458 -0.212051542293011 -0.635597067123303
1.338694929352183 -0.216278663810821 -0.609367669030822
0.386665386216409 0.200191676991318 -0.719188841734935
0.799118964021947 0.697564671242394 -0.779236663680341
1.128866321521330 0.685588690568979 -0.792390071523957
1.536561912585512 0.135111920360518 -0.663304183235643
0.918890864846996 -0.388327508024698 -0.603265407865445
0.407943787964604 0.340468131321591 -0.721553055277019
0.408370351478235 -0.004863036331697 -0.694867547866039
1.524477509851651 0.339567175293513 -0.733450278979343
0.774294813252599 -0.401145442120995 -0.625753487300872
1.105194420050603 -0.402643030037674 -0.605031581708365
1.528987039492669 -0.080079025492146 -0.636685994807934
0.599334516582330 0.691446522855597 -0.760091887780912
1.324855379466924 0.664925312161195 -0.769712128449036
0.386281499283169 0.526398090702922 -0.746329884356867
1.497716406701502 0.508989283623968 -0.713051711163407
0.566847898545965 -0.379711977133814 -0.618662733655879
0.364549688824990 -0.200353891347798 -0.627542678948024
1.288352829252637 -0.380295921129293 -0.586076551465657
1.511238003519804 -0.266485910729362 -0.620411023197690
0.978673380473841 0.870464366429567 -0.785008617813443
0.230974149834532 0.176578294748134 -0.733682949151905
0.815141502445889 0.835707292527342 -0.827905302194694
1.156342218555096 0.841295396311866 -0.791750270714782
0.237353810793674 0.353200425551451 -0.756741332777019
0.919079039402073 -0.549648360150293 -0.541651669038006
0.237004124061542 -0.052270500129795 -0.690508344807260
1.694575861897641 0.158256553589650 -0.654705424158875
0.394684242336282 0.686932519826074 -0.769532170387478
0.725913408150721 -0.579129520421819 -0.553161243339259
1.122896072861438 -0.588503179787896 -0.594272366397479
1.685267903582794 0.286613027880345 -0.712614023065539
1.539607635448407 0.681086153465052 -0.785010901076947
1.716414979436091 -0.019786308294562 -0.649726784979252
0.363273691402698 -0.406665363733720 -0.628170819896641
0.253445690530030 0.545588822177549 -0.766017201927753
1.504463931378590 -0.391297114145834 -0.551732126776729
0.620573072140282 0.856186154859798 -0.786330159252304
1.379644783403537 0.869993484006596 -0.810009371445422
0.236831399866105 -0.240364915397276 -0.643426489735161
1.695618059576347 0.463336160209009 -0.733928306834355
0.546425869309882 -0.582865797721603 -0.539735446777854
1.307341160534473 -0.601610642185484 -0.538730063036475
1.692457963262079 -0.259671734036857 -0.595694059157411
0.985560931182769 1.019603573880190 -0.787220290089995
0.258392359226313 0.675516377962013 -0.808539056254301
0.395155009630049 0.905744618585848 -0.795817081717370
0.774491195782986 1.028602730565623 -0.797063579757599
1.525771376930792 0.868142760076319 -0.756630606711488
1.195487350323141 1.025841662031187 -0.805902708914674
0.200905497701892 -0.366641467677655 -0.604666999365142
1.701261141959401 0.667799537471333 -0.767003362244860
0.053268730438707 0.203202896653604 -0.668127201829751
0.378702298881916 -0.573069952154044 -0.540549274607172
0.965688549590619 -0.776157478644277 -0.499913777867150
1.534569580867932 -0.567252903402511 -0.521415691451137
0.040271960243069 0.355701842230265 -0.718274141719802
1.911651374187380 0.174437289791059 -0.610427668665929
0.051386460403713 0.011754734527176 -0.667289315431397
1.701537679233853 -0.429674464189389 -0.552402162966065
0.726626855820810 -0.738605081962505 -0.512413340997253
1.126794461265251 -0.786039706517338 -0.549615773077732
1.892399067060959 0.300969507588315 -0.636261954194127
1.896144592199712 -0.018376742141327 -0.580316729391491
0.592928651454130 1.078874623249518 -0.808529190353570
1.354282193179880 1.055668439042770 -0.796176810859881
0.071799800301747 0.500070082568146 -0.746906576906254
0.565842547507118 -0.760015275000727 -0.499996115485019
1.312704191496118 -0.770784648363801 -0.526514420382340
-0.000106143751002 -0.209603319378112 -0.593154419973867
0.221971439418125 0.895264582637473 -0.810614727172123
1.853592098939153 -0.245132943092526 -0.526726618576604
1.726569169867715 0.875166708264346 -0.751392516745572
0.237652645855798 -0.581991906567354 -0.555929534681194
0.453415725367702 1.077362880476195 -0.821324909040445
1.529235344517115 1.033501168904422 -0.780447652656068
0.973179636405511 1.199575574472467 -0.826045762256274
1.686303801119600 -0.581775175009398 -0.498804316451031
0.045943813800544 0.683460217554832 -0.781017939292943
0.792532305455508 1.205546329893503 -0.805130354599740
1.141188953787158 1.227917398657898 -0.808183492202818
0.359743535916801 -0.750121523869500 -0.517175521807225
0.007518815132400 -0.380858233657515 -0.589266778831927
2.005980031388878 0.128251987059087 -0.611485664765025
1.506423175017610 -0.731897955503041 -0.472955565384794
2.017571851634014 0.298687478663845 -0.595479264890822
1.862419007862135 -0.398325325856903 -0.537678386180517
2.008138765627551 -0.070352258230490 -0.559407619666134
0.919084926521085 -0.947053980649920 -0.447686899777994
1.991890666316556 0.495193564816985 -0.645617054513221
-0.170755875934578 0.170418956506155 -0.700085212025976
0.591706730223068 1.202660398402624 -0.809412885839836
0.760711312558333 -0.925384156163148 -0.498358443877321
1.362355150676251 1.224595124585452 -0.776904061740258
1.127876606762248 -0.911052939346036 -0.489995011999925
-0.155965713553311 0.355517134956265 -0.739779574254232
-0.153778252080749 -0.018397926901695 -0.630823648648674
1.995545222069643 0.679547869652287 -0.667888903731934
0.286277767891369 1.045009032232421 -0.789872416745831
2.018548481646749 -0.227732362335799 -0.504211397791534
0.019615773423237 0.890671865623130 -0.795371785804504
1.725276826479502 1.023399122813668 -0.720394669136040
0.531906662941158 -0.915729281406743 -0.476188907132740
1.305398952806049 -0.912367534918591 -0.442093707716699
-0.187570286329046 0.536281708427333 -0.727596404245919
0.185584838493196 -0.708516916523377 -0.498004073517163
1.881324150404532 0.850658089846485 -0.682539072019733
0.031783702514633 -0.563399386469888 -0.533797936001049
-0.170298624046227 -0.232990129228031 -0.601359396491013
0.398776503488985 1.251960952304812 -0.815574481155496
1.694479985887617 -0.753703074384570 -0.463088970866618
1.516437760748149 1.238564470135205 -0.735556373090913
1.767953348088834 1.018498238759235 -0.722954885515640
2.039269787004024 -0.385513117766493 -0.475638349284938
1.024346701339473 0.395452082210122 0.510398040715338
1.179442240562075 0.370357043162338 0.455443523532966
-0.170570132572472 0.723949404193483 -0.795362315908861
0.381740454639869 -0.888328800473355 -0.441961871527941
0.997528536841782 0.523024479051379 0.441650996787355
1.514074235531405 -0.925993592292161 -0.443513972453935
1.198544853513717 0.562897978582420 0.476341893231312
0.973870800449847 0.157140692677459 0.522915506110046
1.186897102541482 0.166109034472119 0.527978505024601
0.838670413371777 0.355266528776266 0.542557996328324
-0.158387936115814 -0.398679759808485 -0.559344011256705
0.985894302745628 1.441119936345280 -0.769887271959189
0.832629898717007 0.562239316996229 0.492005422724610
1.348814621635289 0.383268053838874 0.451642787928146
0.781793270737030 0.163047678536095 0.557391143480599
0.793816991064610 1.446643081627840 -0.727356425960747
0.998940162980105 0.693087609842308 0.446246719667044
1.375511284077220 0.497272621618595 0.450592665518864
1.156713634516475 1.408067242004484 -0.757841562579270
1.175982023135518 0.718361469416921 0.416891802512117
0.239727813833295 1.242225310839764 -0.811747564598204
0.038757882585938 1.057076643751460 -0.776130315739877
1.394159152591880 0.161226325020812 0.497442147497092
0.924752504638496 -1.123700478464900 -0.398344888729969
-0.334981497656029 0.204997375050270 -0.697747788927229
1.973152903308872 -0.571179132831745 -0.429115700420074
0.821512356211798 0.705776376383773 0.458429548923159
0.995803416977659 -0.017267624134333 0.547134443693204
0.635977657304226 0.403474193170900 0.540462030272708
1.201587869445380 -0.020987910573976 0.544982529526003
-0.317845639635589 0.330582540999548 -0.730402818077528
0.766874238628734 -1.094335427254405 -0.430984537905014
1.109905665836631 -1.108837670951115 -0.424366467987308
2.250927120019210 0.151414649200724 -0.484295500543277
1.373029297384167 0.720876298052541 0.411190683560452
-0.347655593863763 0.001271800678863 -0.664346008460491
2.222727126784874 0.337939740424642 -0.524606937145341
0.016425833669919 -0.748390237082710 -0.528682252145013
0.635097860336237 0.541676016486543 0.497228494632459
0.589122235718983 1.429779329749170 -0.782494702026964
1.561783919005488 0.340141953669817 0.418966772626307
0.648018395980157 0.201534114951093 0.563740550036826
0.787317017841751 0.014788877429136 0.593019617963376
1.368153558808346 1.392969909639749 -0.733866130135473
2.241447004778132 -0.010259367525856 -0.458017302662289
2.236644274229990 0.485059376538141 -0.580977766522375
1.595491927870798 0.528907768576413 0.426585286895900
0.210070388599260 -0.918328546951908 -0.444482384934952
0.999889670591150 0.875483367370268 0.383443826948598
1.375892152805863 -0.059587362248490 0.560370859367033
-0.174628721559752 0.887614612700532 -0.806097000002534
1.222745197472396 0.895190496951823 0.358189140990841
1.546918520145009 0.158223651453270 0.470750140536064
-0.306139902558573 0.520409236741164 -0.708854655128208
0.639870535255785 0.731623271376441 0.467352088091092
0.535110781108226 -1.066736907176482 -0.402321858340402
1.654866603305358 -0.926272767506607 -0.393610313766281
2.187046238510201 0.692637376337728 -0.604768256299520
1.326625290347364 -1.088922404059404 -0.409636782461864
0.804286028076108 0.906025521686652 0.419904639054563
-0.201010293247848 -0.573417240164048 -0.563364874029885
-0.314943307757100 -0.231602748619358 -0.579842628491592
1.565612160645501 0.687990940118511 0.378307945801164
1.372424894870460 0.864226960335147 0.353725453588802
1.013532308227544 -0.195946790457895 0.591632965408985
0.627126751167134 -0.027741052475762 0.610346224398390
1.169485166032618 -0.160318522329905 0.593421787725620
2.112325320219340 0.881107626470063 -0.645140795860622
0.422713850029147 0.375964341090406 0.536505363546417
2.233327705674740 -0.248918884729086 -0.444276689340390
0.415863541849868 1.418172154294273 -0.769722123580075
0.449748916146899 0.587418829832157 0.490788461518417
1.911618324724129 -0.746301459564972 -0.385275970305945
0.984515699858294 1.506271604230481 -0.671946952060664
1.546144895287272 -0.046704581420010 0.487598443016885
1.975425214295744 1.045112878447104 -0.618113015593501
1.494589579325337 1.445874372139418 -0.641878701736147
0.832888183799817 -0.172829684428707 0.585439662453448
1.853162835500121 1.186075779486860 -0.646513297755423
0.430742087774810 0.225631254617801 0.565692240029103
1.739715886158816 0.355870976025184 0.422743288617111
0.813249897028685 1.539263065278711 -0.704911030437402
1.339007263049208 -0.183422294696074 0.542965214620414
1.773776424665013 0.510962119741098 0.378503093217615
0.656771206322462 0.912343623717446 0.414114504347549
1.157502563929007 1.520722902555305 -0.683407168872947
1.034149253763917 1.081607157227384 0.332186414833168
1.752717512445172 0.115727889499800 0.456785964106425
1.208753319613103 1.093401579468887 0.344743961807433
-0.311629215163135 0.731833487214279 -0.761376998834280
1.602051852476046 0.882962321885934 0.331661072749831
0.438644768374507 0.733509020205365 0.492325105498643
0.366502922394806 -1.097247578865546 -0.386127898180812
0.082252534126290 1.241639368345610 -0.789991771898017
1.469686552986670 -1.077953855417322 -0.403676096957478
-0.369626986767256 -0.336886765676485 -0.558779014078228
0.811129488653409 1.100712026163768 0.375204612074579
1.730901470551705 0.660907877564207 0.330007988250763
2.243894466153701 -0.394832605514394 -0.392295708998741
0.648704967571808 -0.186169294308767 0.611205218642044
1.382993394062649 1.026901304226793 0.268513125470160
0.620006843768846 1.522406028967106 -0.725312361959596
0.411651055482573 -0.025697600535217 0.593706332776316
1.551518207084636 -0.186708828935515 0.525918665149954
-0.125817436949040 1.093978861868044 -0.801230197307186
0.997287374296591 -0.329227455005839 0.654080602955494
1.746388360177410 -0.073720384254632 0.450034868989811
1.163276152442191 -0.390467386830162 0.612218090289159
0.253269873917173 0.417303220568364 0.553360567290878
0.003804297997182 -0.909929877432094 -0.452411561987217
0.448375239794894 0.925453902676211 0.392972436745372
0.242544458773564 1.414306309515200 -0.761315184036824
0.259433421881323 0.547640807253684 0.489719893491685
0.669620161018106 1.100097465560026 0.357250886129547
1.863758932265973 -0.963748877967518 -0.390133186557937
0.789775016936704 -0.336615875128857 0.645652110119570
1.957329439002858 0.359438132392983 0.365065701206253
0.277474981558718 0.185817254965717 0.545238735557661
-0.217051601892526 -0.700683361993936 -0.519425555846617
0.895453775144500 -1.277168810282790 -0.349172300783375
1.772721461031321 0.880309388842669 0.290434864687167
1.589392180819044 1.032079399338670 0.265163104347647
0.989630860327920 1.640691046809097 -0.598433929455103
1.927229449935453 0.467727544076413 0.349227079465368
1.352149856522538 -0.395957390576249 0.601490219572322
2.355864656232167 0.174545833338703 -0.359084178048151
1.011161664428845 1.240069397710629 0.286772149172926
0.824964082320014 1.614030799246611 -0.603660127280210
2.384645932983274 0.354098755658032 -0.388882089764358
1.214014477243360 1.241213432519898 0.278555441329685
1.938647312788867 0.124020302229707 0.412863887353246
0.738226721182297 -1.233370656380270 -0.349457291961832
1.134016765850141 -1.246144702341854 -0.331938603637935
-0.502169644920521 0.170011612292528 -0.697738692867654
-0.307203675381540 0.909848622219808 -0.755030863323898
1.418756132104400 1.543289688058667 -0.550125067045209
0.415376172637508 1.555987925971259 -0.687520218288327
0.436089141565543 -0.169837848575892 0.661215815088869
0.187091976908701 -1.107003026629739 -0.401391163621228
0.267283272091909 0.757888036532821 0.496448062953572
2.178916804690191 -0.581093018430024 -0.374918241923750
1.114942621868636 1.600385846048749 -0.570282602853363
2.349706071008917 -0.009175339168816 -0.303464055756371
2.329250798921554 0.522189450573307 -0.430411612176598
-0.489235068432185 0.365117257935946 -0.679497420868155
-0.530556975386730 0.030078656104638 -0.618399108822686
0.854995811132780 1.226974264311542 0.275080686388717
1.407063293896212 1.245814923441706 0.259149157690583
1.714256084932422 -0.191909916392127 0.518322924486749
-0.340667407913488 -0.542769299788589 -0.556960922414961
1.719330358646703 1.410640703477734 -0.567045096361868
0.610558539045013 -0.368452146398745 0.641827845384956
1.669462674793062 -1.118723427046330 -0.360894615817305
0.280160099077364 0.040767891694516 0.632009992812920
0.629351652955569 1.596366065867210 -0.657132319053653
2.323823357909300 0.682960242244326 -0.414513919507030
0.534401369235533 -1.249132417137050 -0.329850938289726
1.540792926293592 -0.396644848530734 0.548232432564161
1.285504412333470 -1.229668287601167 -0.310052146877438
1.899575008306102 -0.090779096553751 0.415925545899707
0.454531071973635 1.088513986307285 0.370125011397966
-0.485737381343821 0.521069797077356 -0.728790943837687
1.759466605759100 1.014051350714785 0.202865802098100
2.287486684301888 0.916287295752953 -0.465980140189711
2.005674594915132 1.213364173100860 -0.520890976817481
2.052839155810229 0.321542691687377 0.329708528168924
2.387234789514339 -0.205731284448890 -0.298538324805657
2.059913857978701 0.495596312684088 0.265019067622297
2.132070730609718 1.066351610939451 -0.522957141914559
0.314795411508709 0.906158473243588 0.436403639975570
0.637448406734719 1.263907070179101 0.294770669887187
-0.511133363394972 -0.196518731109857 -0.588518155782254
1.573455384436425 1.210313337210572 0.197872501652894
1.707399589250791 -1.132607901985542 -0.320222850993877
0.996349095403177 -0.558210806675202 0.633622730864614
2.091365626549122 0.125112002556996 0.361866566470669
1.165894185258041 -0.573511089149365 0.638184503891052
2.055003996608266 0.665830015409716 0.228284306285411
1.189265872209858 1.386211455146293 0.172457045299328
1.046371109116762 1.366838361660265 0.215134166159905
-0.129503821086302 1.253158604150932 -0.809174827397468
2.132511011125003 -0.721439089835441 -0.339303150516623
0.293020926054530 1.536967430499286 -0.711019756159825
0.771965603401838 -0.530236247767198 0.643101581739711
0.258316954382127 -0.187179367186596 0.624482938594988
0.430674423411342 -0.328909513897063 0.656696386578038
0.471562719719836 1.633484943529557 -0.618235827483373
0.088809372148853 0.383607521388126 0.560410879004317
1.329658709909573 -0.557352535845828 0.643040962126946
2.030904819986097 0.840626402601520 0.214255471765490
0.620691993413196 1.658968353461334 -0.596558146201868
0.089002079477246 1.434703098113815 -0.718194938986828
0.378229939426296 -1.257529501237557 -0.367201285356104
1.206653802768720 1.661498789901105 -0.355190916000467
1.371022109864597 1.374019781061735 0.159714759478586
2.437979405885142 0.238846128639398 -0.164332099268665
0.079623281395935 0.553627226333709 0.500585362153775
1.893511243856236 -0.248600804700287 0.445089844433746
0.848276154804119 1.391890528404217 0.217863214543176
1.716543532922903 -0.390853843216941 0.556891908704992
2.378621249867035 0.375051429199797 -0.203350874577150
1.495364361397131 1.597571108692227 -0.380172956377061
-0.521790171575248 0.698381112976878 -0.766214609632608
0.067385308067122 0.201328150772600 0.567732927939592
2.341980847651664 -0.375904873290435 -0.222802775441846
1.493376590306565 -1.243003746116939 -0.305501200914924
-0.337887982102920 1.062912717454211 -0.761933747325850
2.058409097586814 -0.093055935391496 0.382790552039262
2.422466805371740 0.042486807950365 -0.104003376829955
2.407158738009892 0.563821357667494 -0.234982588815548
1.781773137618087 1.232392993967237 0.167965794692852
1.942594876618319 1.035444698948287 0.167992631174809
-0.528021444160068 -0.371616792278769 -0.541966464179786
-0.193337810174537 -0.897521412447285 -0.482845630970222
0.455548074072611 1.262978122640481 0.292073704675782
0.957693774253743 1.729209664079361 -0.345894936659753
0.319125267047398 1.111946489315238 0.385500928984461
1.777150647489907 1.470544035095031 -0.364475677909682
0.622205464069892 -0.534417329898812 0.650718734279264
0.037266022789400 -1.062659809341297 -0.397620073300660
0.062457398042315 0.774614807524229 0.472497727098509
1.573919046420795 1.338015930059731 0.087549577264843
2.353555464138751 0.727060385947709 -0.256601804862048
-0.375686040838733 -0.729323993475649 -0.472975533550608
1.827643571680786 1.209730267619392 0.102151286720635
1.546953837594527 -0.559439059596005 0.613011146417411
0.676191398678486 1.426564613109350 0.211221849622624
0.084906240429501 -0.005256030920290 0.609280746527249
2.243408027047604 0.275868693012570 0.180886164414581
0.431710064298862 1.679112263401792 -0.599797558134524
2.268050808272011 0.909350273839253 -0.264691862879690
2.280301806320026 0.456898971629796 0.188752661218729
2.050696949283939 -0.893486616202015 -0.315830775721079
2.024143843010380 1.283281127008189 -0.311263839854692
2.429064478927956 -0.138961043653137 -0.078834049851021
2.169990270287953 1.124474504046749 -0.292136966414120
2.065648348016907 -0.226810803780145 0.426739010108745
0.245232945548835 1.642845432019369 -0.670589125682238
2.294237172347663 0.075535173167813 0.248148658084848
0.241728569378511 -0.359918605671741 0.660265455558966
2.245480456364551 0.610446557295355 0.120067996063127
1.214401630046063 1.550621806235973 0.047702862901448
2.305501615144619 -0.514321005449971 -0.203856101847967
1.036745397124549 1.578574177250721 0.104884501826093
2.414781633092372 0.249697465084915 0.055451646767711
0.192112665214405 -1.251283036384870 -0.351594381749853
0.113311373544986 0.928033111548178 0.426114604339609
2.381402428110277 0.448473234090337 0.025229814882220
1.384958879752023 1.536339706385626 -0.005378942443628
1.418674955632845 1.593233953132366 -0.156528606193703
0.640380031785596 1.748444336300745 -0.386207181606825
0.965982188252856 -0.750979975843059 0.690323023294037
1.099588336719581 1.708446388625370 -0.192953632706834
-0.528504242140204 0.884645821798459 -0.761002186725240
2.191772859054124 0.791518401132111 0.075224855372907
1.166775566872166 -0.704407875397324 0.625369490596177
0.443020410583035 -0.538301821360419 0.663297140133980
2.365965367191961 0.084634973621509 0.075880591673133
2.394542394203477 0.591560043188426 -0.035578523354469
1.509420257364488 1.563461933350265 -0.010093648176155
0.838157101270488 1.547194620086241 0.103147270001818
1.217867839086511 1.654204201092214 -0.031109296712868
1.703690671542248 -0.581699718120089 0.520070615656982
0.473044093791078 1.736563091656316 -0.481050282471587
1.724517470518586 1.523913744944214 -0.149868709412755
0.285950858735228 1.250810508388027 0.293072720630757
0.083356828934771 1.527843643827352 -0.710439745762756
2.134928612860057 1.002742837238473 0.043685234468684
0.803413527268652 -0.736148602790169 0.698449318332682
-0.512588355439766 -0.506856699012203 -0.545765991427873
0.501231800263690 1.445967724404885 0.251444630588968
0.078894890352864 -0.134160810476692 0.656074234108330
2.418439001868303 -0.355000622936648 -0.072514994546891
2.285409336636346 -0.116523813077292 0.292983542500205
1.035196788433283 1.624930670990920 -0.023535207951625
2.306502657838550 0.767834675941309 -0.057036752820607
1.887775868091089 1.321018815621755 0.023486025142116
1.351742953084599 -0.729305565538076 0.604155741556456
0.936142674646696 -1.402558483230640 -0.200664110770572
0.982320813983380 1.692063822962407 -0.145606494124188
-0.727704453809115 0.177542180190311 -0.643709534536136
2.035326269735311 1.187999716426045 0.046195846670550
1.947097572450544 -1.111097191063154 -0.271577354974437
0.723648304399881 -1.439636396342910 -0.248314317007554
-0.701996274944278 0.385790677379576 -0.701801034893348
1.084528595982934 -1.414923465720377 -0.186377239297003
0.310858503846112 1.695513287649770 -0.570833468086122
2.240516741698930 0.940929967571572 -0.112851553477043
-0.733497918820678 -0.015491769366841 -0.618026237727271
-0.287441935969996 1.259529363783542 -0.767193661739278
2.045385979312101 1.326649720221419 -0.151551125903265
2.021677803588750 -0.426755870393599 0.418133854398448
2.409908085277471 -0.114380384023583 0.087204472693367
2.165370652607973 1.161303297923564 -0.086735899418808
0.853084327105736 1.640956158355662 0.024139063019433
-0.137326387435905 0.444816332127362 0.576430211567570
0.621114522494168 1.601392635428486 0.124221011450453
0.099374170444115 1.126533232745982 0.382376954145898
2.299214338924734 -0.692952734689756 -0.163075990114627
-0.142486396746481 1.430380862686248 -0.758224799002340
0.608580868268537 -0.687018682832624 0.699632093229943
0.818649871940500 1.705008089902148 -0.059639834042308
-0.137016189551879 0.568715973506111 0.500005967147795
1.556605122748018 -0.747986954340149 0.624448601839609
-0.154120685181088 0.194863287965956 0.614493134291856
-0.712942893254668 0.540519410670967 -0.731894457000366
0.567174065207855 -1.439716638809716 -0.217448807923719
2.230957808279458 -0.256087770280001 0.304417009476396
1.260233022033581 -1.418436272601145 -0.153365806422742
0.259734423236956 -0.516099272623642 0.669483101530368
1.785886587984712 -1.256865031122747 -0.199708542731816
-0.378189212780497 -0.893600783988095 -0.465106448530372
-0.720557815760946 -0.160431916087592 -0.597232462714472
0.294518813623479 1.685078495606961 -0.502022010920318
2.382575521884565 -0.522346366858680 -0.037398403958297
-0.166025937699014 -1.049730087086924 -0.402170548595246
-0.087619131904247 0.769523093376163 0.458466175116598
0.631326318623802 1.655933606775542 0.057794548696024
0.432977586202862 1.741690169235809 -0.332981081878021
0.619292983544787 1.772376684380751 -0.128681617932411
2.346315158150456 -0.286330527695468 0.145863306428987
0.326068165671708 1.440025837683140 0.221665178640521
0.049932977727751 1.606698833577985 -0.623543438069522
0.079414892734875 -0.334030031818403 0.677240635850492
-0.506136063069458 1.074361119554845 -0.746224156892964
0.010820101692700 -1.211778204418422 -0.325002421042012
0.632031226605254 1.741964478363872 -0.084598456828040
-0.104150012560979 0.007297907465069 0.654868748898671
0.479525217127258 1.570658449707822 0.128041178536859
1.991649113458851 -0.584094116878793 0.488736805289963
0.395125832116870 -0.717795383236529 0.670619329949150
0.256066520627482 1.723007542894839 -0.458481150330109
1.703281183471494 -0.732197440248183 0.562024505341413
2.187021612183390 -0.885956195386034 -0.164954541944089
0.978180237737278 -0.886574410236697 0.689191047416364
-0.679624555603672 0.753933420312004 -0.719972566368964
1.171466147366392 -0.913355275273666 0.643583593937146
-0.548611020771296 -0.732791274693316 -0.471651298362487
0.399875584886708 -1.420714844006754 -0.205233424849548
0.074890670733115 1.286139104206335 0.306614421090732
1.428419760147859 -1.393543966452883 -0.128154853793563
-0.076818325394812 0.939100222377027 0.420511249688107
2.206488620216359 -0.448248590514372 0.308075157715114
0.435536376079274 1.775140239612339 -0.221132344964577
-0.718502755595505 -0.386549134713929 -0.565453681246923
0.795290902193678 -0.874193827318716 0.696829912936084
1.367478533238841 -0.921924952241849 0.625273507443942
2.349728717878782 -0.681728807037935 0.030845590887227
0.089733593918544 1.687233208302163 -0.553023193893768
0.488377870029380 1.658840024134426 0.067504676793415
2.329130237403385 -0.466288395226565 0.182322583440372
0.924778019886037 -1.497584613320668 -0.133299002797104
-0.129250089492599 1.585992586520979 -0.694551731121704
0.478105562295066 1.736432890065321 -0.159796228712393
-0.162016228465336 -0.112780262520405 0.650643823639359
0.742626396116121 -1.492843460434506 -0.138258020180587
0.489926861566418 1.719180788178962 -0.048886459663897
1.076754358949670 -1.522427803562423 -0.106904724114016
2.106085521942373 -1.041039703426584 -0.126147979147968
0.576884807834703 -0.883974500042434 0.724908051345569
1.509079219666200 -0.906702448717638 0.589846249285147
0.300582337254633 1.758363438125530 -0.267012496346705
1.917371028861514 -0.773124959971383 0.520231202585790
0.282403545625357 1.581939232461363 0.118540420779952
-0.289899655558429 0.450534706230901 0.528657697933757
0.229206090951541 -0.707128390802548 0.722634295830949
0.068915204622976 -0.513464200396033 0.674027148960820
0.107043123927143 1.688608027165200 -0.483699350696283
-0.130775043170751 1.093340459123415 0.416426028019518
-0.279076842987848 1.473934285114149 -0.701577216348717
-0.275062804774775 0.570843466810158 0.520711081369964
0.523605798316552 -1.504298778397888 -0.160667048031485
-0.682156836197710 0.930483628665822 -0.761528071461140
0.182320949669620 -1.436991136582740 -0.230422313803545
2.158664010474174 -0.591622838668597 0.339858911464636
-0.292697576917090 0.238752414399568 0.585229949443940
0.105204757066043 1.415245520211621 0.237285369862861
-0.515937953826983 1.242233059397213 -0.733883716351862
0.271842075273891 1.773442858494419 -0.201569297436718
-0.713243231297193 -0.523923011769426 -0.534724668451948
1.925847084643447 -1.232507130421939 -0.074760227795725
2.267634318729650 -0.861932987350884 0.032754889902143
2.299411462351866 -0.663188168375434 0.240253700499843
0.116210538264184 1.753386709639122 -0.408661602299794
-0.297615863330639 0.764271028797000 0.487348499996927
-0.343155397831802 -1.051939967140289 -0.380019243307846
0.300190075167119 1.674058359456394 0.069881742619527
1.685664390437995 -0.942745094620106 0.543821001387756
0.318734007043305 1.769343760876524 -0.131062124605355
-0.128743564172753 1.624309927090908 -0.632012048644159
-0.132109213674853 -0.316361047179781 0.707239580929940
0.429855643033076 -0.896334890393342 0.733890561007556
0.305555746800345 1.759688053258153 -0.056769680979776
1.144481393662950 -1.051654232681885 0.644534081871366
0.985771042348329 -1.079441334982672 0.661848285883793
-0.193140991452337 -1.210281387763779 -0.315013529231180
1.641159258849941 -1.431682260703734 -0.024212540872944
-0.291023568192197 0.048757544267146 0.598205481619223
-0.522388745518025 -0.877604412074407 -0.419239907294037
-0.903553160859921 0.206341301642743 -0.630785392386043
1.762621104121024 -0.971376315413011 0.546237610234130
1.387594053609334 -1.529428329603719 -0.023575635441013
0.345019208687811 -1.508862646713876 -0.145749063050256
0.069466348086574 1.755284717357558 -0.317871477193098
0.893873207846523 -1.560477945569577 0.014425761056332
-0.854555031146214 0.356921605830669 -0.656549657580317
1.315931856208147 -1.089827793327227 0.631820223591112
0.802782781238197 -1.053308435526904 0.698557083722706
-0.879534135923719 -0.004222002754788 -0.585288361380810
0.713992867099707 -1.588568331620286 -0.049587804761268
2.086389197862325 -0.806100109975090 0.386370167070136
-0.129420252451451 1.246982374314607 0.310360411841479
-0.262574526297114 0.951164787469994 0.462561821340823
2.155803993206764 -1.006830877584992 0.094082927808148
1.063194111763580 -1.546081596721585 0.055465899195190
2.246812381117489 -0.807914508707853 0.242101953717796
-0.104649059950951 1.676832806469754 -0.545274929370562
-0.900594181405427 0.535874468999756 -0.731642913831819
1.508220207501855 -1.093271074819096 0.592753251924592
0.065935479465154 1.780417803280024 -0.259986411888837
0.548075597294981 -1.560256363058685 -0.070762752819958
-0.668108132489316 1.094379621676384 -0.733021343554605
-0.322809457973111 1.567578263733851 -0.664964694400460
0.088318009123508 1.569590547306722 0.115955151070452
-0.329460303815173 -0.123520676078195 0.685759407028069
0.563778232900120 -1.079740996294223 0.666138242930598
0.077385264230357 -0.698296690009643 0.716771258187145
-0.877000901419722 -0.178237446896887 -0.606846084469682
0.018404896536316 -1.390561723390523 -0.211137556035051
0.219941752056756 -0.882891890585840 0.703603705765468
1.996387584366245 -1.211100523077164 0.132312066297567
-0.739765380258440 -0.735232547866811 -0.466848052967439
2.001402409245232 -0.934728588071899 0.445912221537314
0.123364003559892 1.774285369558018 -0.179922645181524
0.201199455655519 -1.519293896328643 -0.145765058887796
-0.122699430871777 -0.518443516339147 0.721348924333642
-0.141451307847282 1.705907208198066 -0.512676344127771
-0.281035683317148 1.132667220700631 0.376540384029818
0.075740960968009 1.658759168133733 0.045854360327980
1.713236511635222 -1.350389612352924 0.188064123837257
2.089801495561783 -0.988540189789968 0.312559416595994
-0.875122140231593 0.711647594394877 -0.721965028054782
-0.086813981348535 1.463018276377032 0.275648338959548
1.433819559652067 -1.448214292300701 0.187462386044967
0.127718942528456 1.767871682943673 -0.123768614316531
0.388775285553133 -1.524971307467884 -0.062251402911479
0.130753324720063 1.714064886361555 -0.038624849699760
-0.489152648493471 0.423399346355480 0.533947217837987
1.130146993443486 -1.519082230316244 0.212133537206975
-0.918384383600385 -0.376865245767241 -0.576651949022808
0.430992003390166 -1.040417276543658 0.681233926861887
-0.112528856945143 1.730421874948049 -0.390253457718206
1.794442639355503 -1.116269107754245 0.478529331635794
-0.490519976903631 0.580068801063467 0.540822557305381
-0.483388526335891 1.460303991352409 -0.740866026056828
0.548551484335259 -1.588300337994601 0.027549605569555
-0.481118353933439 0.199248851367664 0.573198296398093
-0.321922252623281 1.631500664004948 -0.607443887893298
-0.291304094370481 -0.331063383458633 0.707064504118704
1.135186205531957 -1.284321718398058 0.562520148179027
0.930489298839265 -1.275048452170342 0.597959259966280
-0.360996940546087 -1.191654153911361 -0.287438232942469
1.975037310431276 -1.137023325905866 0.301172135341963
1.313322382031671 -1.276142876075916 0.560027451330586
0.847142884365740 -1.540224455013141 0.205266756790503
-0.480339301863865 0.764238102027825 0.465677194527103
-0.541703771191535 -1.073903687736088 -0.369857908812818
1.459984134971709 -1.293856947901078 0.491166050047391
0.749414640570791 -1.240684942708271 0.644684004456441
-0.256597137361265 1.289428489523059 0.305367672628827
-0.678230307909559 1.234137958539379 -0.775299357406128
1.632719377223766 -1.310530578599792 0.344709964717973
-0.491062228333463 0.029245110113184 0.653376131970287
1.363862865247851 -1.409415089158541 0.393878084577661
0.395464974805568 -1.552450974813076 0.020476359589358
-0.868108094627188 0.937682529416697 -0.771134854538289
0.176292243729680 -1.519896652882284 -0.043424287783230
0.067068237306594 -0.879048348360864 0.718027263752678
-0.107342164079681 1.790361576235065 -0.271223689463952
-0.259000967784498 1.686577102292037 -0.543176800048419
1.105508992256826 -1.413803020197370 0.536644101405534
0.245081156895393 -1.039344402422380 0.708814410136446
-0.074948550111238 1.606649734404565 0.160828940673665
-0.431292196325649 0.966829465266819 0.472073461743185
0.015659363921367 -1.462633514659962 -0.120007784703168
-0.903956943483358 -0.506856213537591 -0.490269563494026
1.047834213921321 -1.508394872201511 0.415298977068117
-0.163028135766325 -0.693835021711815 0.688964815286789
0.912219452802789 -1.406557401703484 0.568027198084419
0.594254393101929 -1.284065519351822 0.626006758565612
-0.723348177170755 -0.877120709884501 -0.456757694403347
-0.209350362371568 -1.413293231138247 -0.192585410830851
0.601298088545863 -1.564679508256487 0.241475799222201
-0.100429988526047 1.752022312811583 -0.186512997065952
0.899138485885925 -1.477705035551176 0.454567960976175
-0.747006129097169 0.866341459042886 -1.068241540031311
-0.647046308226938 -0.572078657864517 0.530436600206406
1.328871086813973 1.552361292634029 -0.858963890124944
0.346052808355939 -0.755172357090543 -0.243527542065466
2.437439077841709 2.288706824328516 0.821497924669247
-0.351868681052542 -2.686190487044601 0.534596121187072
-0.462333372571472 -0.430154023685187 -0.092418613820100
1.466269686028434 0.241018957945636 -1.918159564372877
-0.188834547252825 0.035521272508790 -0.548792576975403
0.162729066771593 2.483502986720090 1.739450452024179
-0.443830122383567 0.206455941049760 0.967304635508291
-0.730187003744434 -0.895922007746968 -3.232864079241970
-0.048823100999805 0.301297249875000 -1.770391686943783
0.112565428657261 1.098925550112249 1.081028542806609
-1.186668033254076 -0.000945314915876 -0.231798376422303
-0.924762816948703 -1.110123625166957 2.321813138840051
1.167612675959660 0.057087652621089 -1.219183938272002
1.150249259683053 0.486100491218114 2.122121640285783
-1.523628475279942 -1.880897441746483 1.054726062019312
2.451987507845009 0.150217634922475 0.448013238827873
0.798987939667504 -2.174253269552326 -1.010993790297384
2.344806447037923 1.587681404186345 -0.310353224305530
2.454465767077624 2.360239715866058 -1.511371756227374
-1.603695574729025 -1.136656498480226 -2.090535143729415
0.261348268077086 -1.584987230644672 0.442402934015137
3.196536362692289 0.967765134874581 -1.685514241826914
-2.846048951025275 -1.364260382040165 -1.535682800417647
-0.222569884638288 0.377073794728731 -3.262948803974088
-0.558549668232277 -2.102215245843302 0.724277913397889
0.889036631559292 -0.913006188335886 0.700101698783856
-2.359996345836547 -1.347094712332012 1.037451304375916
-1.202617702778252 -0.902949309177417 0.069118378107426
4.163394615907499 -2.976858559095775 1.424957663436711
0.884026840809710 -0.605906343267315 0.531887352246603
0.596544934888201 1.028655406986030 -0.461059033740764
0.184429055027716 2.064154047500047 0.825751937623856
2.809792328805285 -1.760647571719695 1.057792672644151
-1.551908156831607 1.971390745320847 0.128256441211970
-0.321988150780632 -0.716980003794338 -1.221270177409640
0.882504468587404 -2.269038421058595 2.640040278699383
-1.576604733420334 -0.230372699823313 -0.283273325968147
-0.664378029565010 -0.681965213397247 1.949743604468182
-0.188131300656565 0.839710413049605 1.552731019097206
-0.394385272633317 -1.362956174827868 2.146090096968958
1.705816844397229 0.432000425435179 0.249210167756376
-2.021027582257879 -1.419541865561765 1.261199478549469
3.164144516891551 -0.160186991523181 1.070764458695287
0.389355409915266 -0.134016018999526 2.054165448364403
0.622186228166397 0.986807583797948 -1.327439946883476
-0.340616333355212 -0.481052845845475 -0.407384403643176
-1.397420637807533 -0.487146210373582 -0.827094220729809
-2.303415750473720 0.378392025181651 3.709275684311787
0.334837240654941 -0.257299871688252 -0.643799267999647
0.903144682607937 1.023232009641654 2.167117595135878
-0.162389329650733 0.119620617232431 1.064950356306341
3.095453921009409 2.176374663305776 -0.579037616498984
-1.184655437901940 -3.369497566864506 1.550929877047498
0.474799100910643 1.060612291487236 -0.000709883496323
-0.993351294724548 -0.737416628432638 -2.688838630253584
-1.698701358953467 0.017024805277277 -0.324406873293696
-1.818890159065875 1.870051062680317 1.734795206575759
-0.724829250629684 1.827536957246047 -0.859560471149554
-0.194981935624742 0.940405122176073 0.389080247395769
2.500967963054908 -2.142060498777851 0.295533349426981
-0.704000069392584 0.867375240723720 0.403470283003573
1.183402429007096 0.280961543458767 -0.375630489428803
1.080173232612070 -1.339340746585698 -0.254329093910650
-0.826518147054146 -0.888134876756823 0.262598239241751
1.077101678740979 0.643247621528306 -0.282668633373361
-0.335198566159361 -2.274326257748951 -0.026690102859196
0.799672826311798 -0.450452394200426 0.922348502861531
1.309767472863389 2.406462045247231 -2.367420970533462
-0.024176762334124 -0.979493739812383 2.012836351819948
0.447775843929332 2.255386078366392 0.353337781083030
-0.795057448169264 0.475057884103327 0.070181586149601
-0.068580169892756 0.417929081255100 -0.718177746300851
-0.372687275626136 -0.586384444908574 0.759855151066811
0.436773130577129 -1.754113237730987 0.796933969482435
0.806430932878013 0.723589770865504 -1.504262786142913
0.374832027601507 0.382100690254365 0.849684265193981
1.142901506553299 -0.077933521482263 1.437117178011385
0.524892486521686 -0.236683671940009 2.303083032019308
-2.138053418363392 -0.805912939507841 1.506895551668802
0.183087798275228 -0.409619664560867 -1.676827057620860
-0.892027655700661 -1.015757818431969 0.893742086381650
0.017963006250678 0.891905180641029 1.348361294560463
-1.647929700842433 1.616170648450679 -1.242198555232405
-1.907821609793078 -0.594596327470326 -2.173023290852133
0.969769574794029 1.196033670759748 1.969164699285853
-0.120253375368897 -0.555213416639082 0.679878732705035
-0.093654774618124 -1.082615450586766 -1.502530190285254
-1.232066484170904 -1.013547445530143 0.445736731200815
-1.308003070742835 -0.726514034248794 -2.038903017422056
2.489570202600389 0.896390193190031 -1.672946437153473
1.476330157988163 -1.483185204694768 -0.251272122789239
0.042958227650889 -0.409618087971139 1.679948359781623
-1.039454477126004 0.772282101055671 -0.921064168831293
1.469214754764308 0.166351520441991 0.984614223800310
-1.617026839765894 -0.199351168876996 -1.624186618623844
-2.762955179096509 -1.334148880225708 -1.769262907720035
-0.033600810234467 0.159913446697486 0.517558047028568
3.499456888580812 -3.292885270567363 -1.332685408730628
1.163451116654705 -3.155175998950112 0.410816480574650
1.085030713430189 2.493473606821726 1.880591821162422
-0.985171399684868 0.092659181941663 0.883573028847005
0.960784131330208 0.465321959572117 -0.393439609432616
-1.376640351959366 -2.352025961088792 0.983630893706235
0.006318291617114 -0.985180896843873 1.077175935165468
-0.922795550994526 4.319318859549254 1.071116926832735
-0.540207902056515 0.836249292788724 2.533040558535775
2.211534529552177 0.811655333781477 -0.894100158512776
0.689206370063177 0.794576094507892 -1.052405685664377
1.339502695879669 -0.619655290136129 2.841044330550981
1.046129276070402 0.505744839573445 1.783055070354994
0.351545604106873 0.755388370498849 0.642413364821667
2.129023471875068 1.173368381907693 -0.466553572004292
-0.381777371632838 -1.762068264100969 -4.409060443976335
0.709368951743391 -0.626939437804916 -2.633700808132031
-0.896566359513296 1.299727410221376 2.226522388598914
1.398095380958584 2.638743224882670 -0.490427329303835
-1.582176708861511 1.530851912265915 0.613704543656289
-1.648552477417943 -1.496175529473422 -0.290498306831532
-1.428289291329438 2.795650862315357 1.365061068026725
0.257706516668447 1.862592149081872 -1.468046355211887
1.222323997318534 -0.671097330934439 0.604217544883480
-1.577871655783240 0.967096326555786 -1.548786673013407
2.483442696554392 -0.553434057432860 -0.033328692881382
0.412361228407004 1.339460916942943 1.509445285578217
-1.497172718492654 1.324476825700977 -2.893164567039697
0.630677133603235 -2.274957553844425 -1.641615141585290
0.702884001084862 -1.048361085188165 2.708370343429632
-0.327272468439740 -0.560665788574219 1.620428671468382
1.130174710855282 -1.340389712705599 1.697920566435106
-0.292979699058046 1.413136257369319 1.506430207282992
-1.735522886100473 -1.777609462144480 0.784446938194038
-0.019977847099524 -2.099232408023094 0.761528585184018
0.644835390759573 1.542408482516954 1.908192117197445
-0.875047431431760 -0.684452094343282 0.062315171701198
0.483862320328664 -1.902432975343344 -1.162656992418335
-0.913885720205237 1.026219045180085 -3.105741308971152
1.086117153053086 -1.033137826862430 -0.821685289571299
0.216983061546677 0.728613069923919 0.211049808983527
-1.225654773744939 -0.179451603178964 -0.242444539863952
-0.221663330032281 -0.630002543826080 0.379470867444238
-0.571744878863965 1.591801304165857 -2.867499072746731
1.474064308377157 0.069009747301992 -0.420233393488648
-1.189779200534263 -0.545843679386860 1.122328893143276
-2.712024012759268 -1.905028402468556 -0.573071615414251
0.333573037297585 1.044496183423693 0.776947906704857
-2.314248990710236 -1.511380348832648 -1.195377735689077
-3.072403763271970 1.179460701434210 -0.398542484950244
0.517173405175197 -0.158367075800968 -2.101371867055534
-0.057126518301160 1.105252134758805 -0.798620993714272
1.271306871647606 -3.384905528371438 -0.154533011322194
-2.249097271517182 -1.242455328686416 0.579848735278873
0.820642569343399 -0.183157117168149 1.847400420574643
1.769481653415472 0.829541308583563 -1.667666525555881
0.694216649911931 3.104441278777140 -0.350471688792658
0.356429986645082 -0.582778854970065 -1.642293569908864
2.384805069121626 -0.138926264409121 1.158310734569634
0.820132056061768 -1.414596176417940 -2.359282589768826
1.118688187315993 2.951723914810280 0.941209710232754
1.509565676307444 -1.967204519740483 1.214852319304444
0.809049948881303 0.068171796047912 -3.426181717262652
-2.345401627078342 -1.940169276631886 0.603872583443659
-0.513332374848978 0.961106522450210 0.237217894552677
1.395905724143395 -0.530449844589827 -2.645707055707934
-0.669870983183643 -2.648679824068277 1.228031980055333
-1.070928225447518 1.050229010051956 1.372588802807559
0.084596626149437 -1.465221382192892 2.684955251287697
-0.119391119282873 2.278722174575286 0.139772949651237
0.972699950854758 1.352179340048944 1.676336050114335
-1.857752074218309 2.827307540235877 0.307192791936558
-2.582857159535262 0.436758700084506 0.716718927459903
2.432122660717329 -0.970830852512196 -0.333645912192588
-2.161334714896061 0.517583354111101 -0.793808772757474
-1.680822962632140 -0.032540377836120 1.076748164815080
0.678970281638350 -1.265017610140320 -2.884115911156365
2.134520248194300 1.162983832546182 1.793330022694854
-1.521999194689744 -0.753487547539013 -0.685823411147494
-1.076523804318374 1.736640058958832 1.547242905468349
0.470140937523115 -0.895226558402768 -0.447342518293821
2.062126607184671 -1.273759464000539 -0.290689205754168
0.338053988674861 1.771482153313224 -0.036058562894570
-1.264352075546710 -2.807136779279694 0.230410504354059
-1.244558403094226 -1.879385780814063 -0.024000033822035
-0.897081730895617 -0.643365204037156 -0.637357689305726
1.091915779600329 0.378982672815856 0.998373675497124
-0.917919921568096 1.544022997397666 0.787353178244743
0.542696635460307 -0.544640220719456 -0.435813150515592
-1.549865217585232 2.051506799079174 0.163448915755951
0.449800686867488 0.130904096393428 -0.236806544923055
1.581692889631575 0.751473526914589 -1.521606174194398
-0.756668332210264 -1.196153857933960 0.533452736035911
-1.624385116946982 0.435379187268085 0.722809523222822
1.205342758781256 2.881110539899168 0.724606658442209
0.337658967842408 0.807689462993223 -0.278641428296048
-1.135270601723134 -0.781822804832251 -1.935070848474268
-0.095128105230576 1.052850008874531 -1.725842974068766
0.786122520545547 0.862195729171997 2.596161650657646
-1.853448038310372 0.061743932614250 1.529546345229566
0.312244948183419 1.972734352658740 -1.449294840220208
-0.692809282745278 -1.438507013258070 -0.491926138751968
-1.470183588876852 -0.332999323841298 1.854804093892010
2.911882876961045 0.205282093325102 -0.592376720994688
0.894025559516935 0.029376752153191 1.349502447287091
1.341160098257704 1.438977908119319 1.413735841916090
1.963265193075911 0.195574142780934 -0.327331301833711
1.212462390082906 1.002246724722129 -0.100465060794311
-0.204383693303863 -0.403942778518251 0.448276061550239
0.001876231619337 -1.041617358269852 2.081615229900222
-1.963589304658423 -0.085866508380068 -0.529389453650264
-2.311185647872443 -1.087976054041875 1.035481619275543
0.956555629886127 -1.059601195071554 -1.758071454103951
0.016056856232280 -0.027871901415877 1.631303408689939
2.040515567890083 1.777013886691312 2.621564834149906
-1.368823056144620 0.428494525035746 -1.719642693923628
0.826181721418500 1.339618113217940 -0.235033492981944
-1.677173791137762 -2.503410859127402 0.237281792437138
3.470481464429499 1.505547958767907 -0.439056572929277
-0.891560624914915 -1.435876259079338 -1.261642476612421
0.939871556613022 -0.867331669742242 0.554538231050699
0.731496176474328 1.383378027356195 -0.134381730797828
1.024248861468354 1.475325321632232 1.685491973976691
2.464855512002919 0.886124589389473 -0.697600388778429
-1.137692977020567 3.385094622514599 0.559881710179988
1.476543552554558 0.193104490562680 -0.562116979215480
-1.767053903218474 -3.150706783153761 1.047879752540104
0.046508204920382 -2.569496055052408 0.274888680034052
-3.859122195605071 -1.042770662589101 -3.067279789248284
-0.879033617276336 0.741527206515305 -0.426697829364526
-1.066072567281794 -1.111603343156589 1.024639610933612
0.665223647718049 -1.563042914147794 1.014904396370122
0.940441960513991 0.258520309230423 -0.149011046300308
0.131678365229586 0.086415963899128 -1.306308193367065
-0.635745274185910 0.792202411137935 1.205373935318083
-0.751593449047717 1.747433492479941 0.894934660814726
0.185453123557737 -2.014649843406102 1.147700122171523
-1.831841899066767 -2.917261246720632 1.785751686456325
0.524119177277332 2.424411339192652 -2.991188078345866
-1.047880286648962 -1.095857301582960 1.644774728366253
-1.867490061117282 0.182669336966084 0.284621245677128
-0.654407555973452 3.128287668015358 -0.836196004267008
-1.626976147062145 1.071016181763433 0.456705737987893
1.900193891691786 -0.501294576611506 -0.502656221317880
0.291420407297929 0.486526809656435 -3.470007701228792
1.150583271529589 -1.684815244572010 -1.848620028618333
-2.129432254028746 0.361607615924105 0.429759086614706
2.265625118490117 2.032483957017821 1.208784263718263
-0.816157014987379 1.171998823935463 2.003830043428492
1.023103336608521 -0.040083286536783 -0.470927760707821
-0.469359620450764 1.406026461207831 1.311517147622832
1.972326444678475 -2.392058175182270 0.116971255305934
